<svg width="314" height="249" viewBox="0 0 314 249" fill="none" xmlns="http://www.w3.org/2000/svg">
<path d="M44.7187 35.633C68.3457 13.3676 124.115 10.9927 124.115 10.9927C124.115 10.9927 132.124 4.00507 138.717 1.8667C145.31 -0.271659 157.882 0.0414969 157.882 0.0414969C157.882 0.0414969 172.792 -0.658546 180.697 3.69191C184.695 5.89244 189.823 10.9927 189.823 10.9927H216.288C216.288 10.9927 245.802 16.6975 261.006 27.4196C279.764 40.6483 295.685 74.875 295.685 74.875C295.685 74.875 314.975 96.6579 313.937 113.204C313.017 127.853 295.685 146.058 295.685 146.058C295.685 146.058 290.819 165.134 283.821 175.261C275.778 186.901 264.656 194.426 255.53 199.902C225.163 218.122 172.483 233.668 172.483 233.668L122.29 248.27V214.503C122.29 214.503 99.0589 217.113 84.8733 213.591C68.7793 209.594 59.8708 204.508 47.4565 193.513C31.5331 179.411 19.1658 146.971 19.1658 146.971C19.1658 146.971 0.170112 127.764 0.00114574 112.292C-0.171237 96.5064 19.1658 76.7002 19.1658 76.7002C19.1658 76.7002 30.972 48.5875 44.7187 35.633Z" fill="white"/>
<rect x="51.1072" y="58.4481" width="211.724" height="109.512" rx="54.7562" fill="#14182F"/>
<circle cx="105.863" cy="113.204" r="18.2521" fill="#FF3C3C"/>
<circle cx="204.424" cy="113.204" r="18.2521" fill="#FF3C3C"/>
</svg>
