<svg width="338" height="338" viewBox="0 0 338 338" fill="none" xmlns="http://www.w3.org/2000/svg">
<rect x="88.9087" y="63.1896" width="166.061" height="224.843" fill="white"/>
<path d="M0.575188 214.145C1.14372 216.291 2.13172 218.304 3.48218 220.067C4.83264 221.83 6.51883 223.307 8.44344 224.415L40.7625 243.095V280.302C40.7625 284.79 42.5452 289.094 45.7185 292.267C48.8918 295.44 53.1957 297.222 57.6835 297.222H94.8927L113.573 329.54C115.071 332.101 117.21 334.227 119.78 335.711C122.349 337.194 125.26 337.983 128.227 338C131.171 338 134.099 337.222 136.704 335.716L168.99 317.053L201.309 335.733C205.194 337.973 209.809 338.581 214.143 337.423C218.476 336.266 222.173 333.437 224.423 329.557L243.087 297.239H280.296C284.783 297.239 289.087 295.457 292.261 292.284C295.434 289.111 297.217 284.807 297.217 280.319V243.112L329.536 224.432C331.461 223.32 333.148 221.839 334.5 220.074C335.853 218.309 336.844 216.295 337.418 214.147C337.991 211.999 338.136 209.759 337.843 207.555C337.55 205.351 336.826 203.226 335.712 201.302L317.048 169.002L335.729 136.718C337.974 132.834 338.585 128.217 337.426 123.883C336.268 119.549 333.436 115.852 329.553 113.605L297.234 94.9256V57.7014C297.234 53.2139 295.451 48.9102 292.278 45.737C289.104 42.5639 284.8 40.7812 280.313 40.7812H243.103L224.44 8.48075C222.186 4.60463 218.496 1.77201 214.169 0.595973C212.022 0.0141896 209.782 -0.135826 207.577 0.154621C205.373 0.445068 203.248 1.1702 201.326 2.28799L168.99 20.9509L136.687 2.27106C132.803 0.0260095 128.186 -0.584583 123.852 0.573539C119.517 1.73166 115.82 4.56368 113.573 8.44691L94.8927 40.7643H57.6835C53.1957 40.7643 48.8918 42.547 45.7185 45.7201C42.5452 48.8933 40.7625 53.1969 40.7625 57.6844V94.8918L8.44344 113.572C4.56114 115.828 1.7313 119.531 0.573691 123.869C-0.583913 128.208 0.0250781 132.828 2.26729 136.718L20.948 169.002L2.26729 201.285C0.0335049 205.182 -0.574453 209.803 0.575188 214.145ZM168.99 185.922C110.105 185.922 101.306 154.129 101.306 135.162C101.306 113.385 118.717 91.457 152.069 85.8395V67.6842H185.911V86.4486C215.252 93.3859 226.521 117.802 226.521 135.162H209.6L192.679 135.466C192.442 129.037 189.041 118.242 168.99 118.242C147.009 118.242 135.148 126.955 135.148 135.162C135.148 141.49 135.148 152.082 168.99 152.082C227.875 152.082 236.673 183.875 236.673 202.842C236.673 224.618 219.262 246.547 185.911 252.164V270.523H152.069V252.249C112.49 246.039 101.306 218.358 101.306 202.842H135.148C135.334 205.262 137.838 219.762 168.99 219.762C192.341 219.762 202.832 209.864 202.832 202.842C202.832 197.343 202.832 185.922 168.99 185.922Z" fill="#19214E"/>
</svg>
