<svg width="338" height="338" viewBox="0 0 338 338" fill="none" xmlns="http://www.w3.org/2000/svg">
<circle cx="169" cy="169" r="168.5" stroke="white"/>
<circle cx="169.003" cy="168.987" r="81.25" fill="#19214E"/>
<path d="M169.004 107.244C176.115 107.244 182.935 110.069 187.963 115.097C192.992 120.126 195.816 126.946 195.816 134.057C195.816 141.168 192.992 147.988 187.963 153.016C182.935 158.044 176.115 160.869 169.004 160.869C161.893 160.869 155.073 158.044 150.045 153.016C145.016 147.988 142.191 141.168 142.191 134.057C142.191 126.946 145.016 120.126 150.045 115.097C155.073 110.069 161.893 107.244 169.004 107.244ZM169.004 174.275C198.632 174.275 222.629 186.274 222.629 201.088V214.494H115.379V201.088C115.379 186.274 139.376 174.275 169.004 174.275Z" fill="white"/>
<circle cx="279.501" cy="39.0036" r="29.25" fill="#19214E"/>
<path d="M279.5 16.7779C282.06 16.7779 284.515 17.7948 286.325 19.605C288.136 21.4152 289.153 23.8704 289.153 26.4304C289.153 28.9904 288.136 31.4455 286.325 33.2557C284.515 35.0659 282.06 36.0829 279.5 36.0829C276.94 36.0829 274.485 35.0659 272.675 33.2557C270.865 31.4455 269.848 28.9904 269.848 26.4304C269.848 23.8704 270.865 21.4152 272.675 19.605C274.485 17.7948 276.94 16.7779 279.5 16.7779ZM279.5 40.9091C290.166 40.9091 298.805 45.2286 298.805 50.5616V55.3879H260.195V50.5616C260.195 45.2286 268.834 40.9091 279.5 40.9091Z" fill="white"/>
<circle cx="279.501" cy="292.504" r="29.25" fill="#19214E"/>
<path d="M279.5 270.278C282.06 270.278 284.515 271.295 286.325 273.105C288.136 274.915 289.153 277.37 289.153 279.93C289.153 282.49 288.136 284.946 286.325 286.756C284.515 288.566 282.06 289.583 279.5 289.583C276.94 289.583 274.485 288.566 272.675 286.756C270.865 284.946 269.848 282.49 269.848 279.93C269.848 277.37 270.865 274.915 272.675 273.105C274.485 271.295 276.94 270.278 279.5 270.278ZM279.5 294.409C290.166 294.409 298.805 298.729 298.805 304.062V308.888H260.195V304.062C260.195 298.729 268.834 294.409 279.5 294.409Z" fill="white"/>
<circle cx="58.499" cy="292.504" r="29.25" fill="#19214E"/>
<path d="M58.5018 270.278C61.0618 270.278 63.5169 271.295 65.3271 273.105C67.1373 274.915 68.1543 277.37 68.1543 279.93C68.1543 282.49 67.1373 284.946 65.3271 286.756C63.5169 288.566 61.0618 289.583 58.5018 289.583C55.9418 289.583 53.4866 288.566 51.6764 286.756C49.8662 284.946 48.8493 282.49 48.8493 279.93C48.8493 277.37 49.8662 274.915 51.6764 273.105C53.4866 271.295 55.9418 270.278 58.5018 270.278ZM58.5018 294.409C69.1678 294.409 77.8068 298.729 77.8068 304.062V308.888H39.1968V304.062C39.1968 298.729 47.8358 294.409 58.5018 294.409Z" fill="white"/>
<circle cx="58.499" cy="39.0036" r="29.25" fill="#19214E"/>
<path d="M58.5018 16.7779C61.0618 16.7779 63.5169 17.7948 65.3271 19.605C67.1373 21.4152 68.1543 23.8704 68.1543 26.4304C68.1543 28.9904 67.1373 31.4455 65.3271 33.2557C63.5169 35.0659 61.0618 36.0829 58.5018 36.0829C55.9418 36.0829 53.4866 35.0659 51.6764 33.2557C49.8662 31.4455 48.8493 28.9904 48.8493 26.4304C48.8493 23.8704 49.8662 21.4152 51.6764 19.605C53.4866 17.7948 55.9418 16.7779 58.5018 16.7779ZM58.5018 40.9091C69.1678 40.9091 77.8068 45.2286 77.8068 50.5616V55.3879H39.1968V50.5616C39.1968 45.2286 47.8358 40.9091 58.5018 40.9091Z" fill="white"/>
</svg>
