<svg width="338" height="338" viewBox="0 0 338 338" fill="none" xmlns="http://www.w3.org/2000/svg">
<rect width="338" height="338" rx="100" fill="white"/>
<path d="M29.9459 126.387C29.9503 103.545 37.4928 81.342 51.4033 63.2235C65.3137 45.105 84.8146 32.0834 106.881 26.1787C128.947 20.2741 152.345 21.8165 173.445 30.5666C194.545 39.3167 212.168 54.7854 223.58 74.5731C234.992 94.3609 239.555 117.361 236.56 140.007C233.566 162.652 223.183 183.677 207.021 199.819C190.858 215.961 169.821 226.318 147.172 229.284C124.522 232.25 101.528 227.658 81.7542 216.222L41.3244 229.71C39.8307 230.208 38.2292 230.29 36.6926 229.945C35.1561 229.6 33.743 228.842 32.6057 227.753C31.4684 226.664 30.6502 225.284 30.2394 223.764C29.8285 222.244 29.8407 220.641 30.2745 219.127L42.5867 176.051C34.2693 160.821 29.922 143.741 29.9459 126.387ZM107.762 100.449C105.469 100.449 103.27 101.359 101.648 102.981C100.027 104.602 99.1158 106.802 99.1158 109.095C99.1158 111.388 100.027 113.587 101.648 115.209C103.27 116.83 105.469 117.741 107.762 117.741H159.639C161.933 117.741 164.132 116.83 165.753 115.209C167.375 113.587 168.286 111.388 168.286 109.095C168.286 106.802 167.375 104.602 165.753 102.981C164.132 101.359 161.933 100.449 159.639 100.449H107.762ZM142.347 135.033H107.762C105.469 135.033 103.27 135.944 101.648 137.566C100.027 139.187 99.1158 141.387 99.1158 143.68C99.1158 145.973 100.027 148.172 101.648 149.794C103.27 151.415 105.469 152.326 107.762 152.326H142.347C144.64 152.326 146.839 151.415 148.461 149.794C150.082 148.172 150.993 145.973 150.993 143.68C150.993 141.387 150.082 139.187 148.461 137.566C146.839 135.944 144.64 135.033 142.347 135.033ZM207.643 263.81L166.107 243.06C173.716 240.933 181.03 238.097 187.947 234.621L211.517 246.414L289.333 207.506V195.557C289.333 190.971 287.511 186.572 284.268 183.329C281.025 180.087 276.627 178.265 272.04 178.265H243.093C245.739 172.731 247.952 166.938 249.733 160.972H272.04C281.213 160.972 290.01 164.616 296.496 171.102C302.982 177.588 306.625 186.385 306.625 195.557V282.019C306.625 291.192 302.982 299.989 296.496 306.475C290.01 312.961 281.213 316.604 272.04 316.604H150.993C141.821 316.604 133.024 312.961 126.538 306.475C120.052 299.989 116.408 291.192 116.408 282.019V246.224C122.063 247.02 127.821 247.435 133.701 247.435V282.019C133.701 286.606 135.523 291.004 138.766 294.247C142.009 297.49 146.407 299.312 150.993 299.312H272.04C276.627 299.312 281.025 297.49 284.268 294.247C287.511 291.004 289.333 286.606 289.333 282.019V226.839L215.39 263.81C214.188 264.413 212.862 264.727 211.517 264.727C210.172 264.727 208.846 264.413 207.643 263.81Z" fill="#0A0C18"/>
</svg>
